<?xml version="1.0" standalone="no"?>
<!DOCTYPE svg PUBLIC "-//W3C//DTD SVG 20010904//EN"
 "http://www.w3.org/TR/2001/REC-SVG-20010904/DTD/svg10.dtd">
<svg version="1.0" xmlns="http://www.w3.org/2000/svg"
 width="310.000000pt" height="163.000000pt" viewBox="0 0 310.000000 163.000000"
 preserveAspectRatio="xMidYMid meet">

<g transform="translate(0.000000,163.000000) scale(0.100000,-0.100000)"
fill="#000000" stroke="none">
<path d="M1727 1279 c-167 -40 -232 -224 -126 -353 75 -90 236 -104 337 -29
97 72 102 244 10 330 -49 46 -150 70 -221 52z m109 -134 c56 -39 53 -140 -6
-170 -83 -43 -163 17 -146 109 12 65 98 99 152 61z"/>
<path d="M1110 1055 l0 -215 200 0 200 0 0 65 0 65 -130 0 -130 0 0 150 0 150
-70 0 -70 0 0 -215z"/>
<path d="M1229 796 c-96 -34 -143 -101 -144 -206 0 -53 5 -73 28 -112 71 -121
252 -144 352 -44 40 40 55 75 69 164 l6 32 -115 0 -115 0 0 -54 0 -55 48 -3
47 -3 -32 -17 c-51 -28 -90 -23 -129 16 -37 37 -45 85 -23 129 31 60 110 77
155 32 l25 -25 49 25 c28 14 50 29 50 33 0 16 -66 71 -102 86 -45 19 -120 20
-169 2z"/>
<path d="M1670 783 c-113 -59 -151 -192 -88 -304 92 -163 372 -132 424 47 43
149 -49 272 -210 282 -64 3 -77 1 -126 -25z m179 -128 c20 -20 26 -36 26 -70
0 -61 -36 -98 -95 -98 -54 0 -89 33 -97 91 -5 38 -2 45 31 78 32 32 41 36 73
31 20 -4 48 -18 62 -32z"/>
</g>
</svg>
